<svg width="393" height="393" viewBox="0 0 393 393" fill="none" xmlns="http://www.w3.org/2000/svg">
<rect width="393" height="393" rx="53" fill="#10B981"/>
<path d="M222 222L172 172" stroke="white" stroke-width="20.8333" stroke-linecap="round" stroke-linejoin="round"/>
<path d="M295.958 295.958L281.375 281.375" stroke="white" stroke-width="20.8333" stroke-linecap="round" stroke-linejoin="round"/>
<path d="M266.344 295.802C262.437 299.71 257.139 301.906 251.613 301.907C246.088 301.908 240.788 299.714 236.88 295.807C232.973 291.901 230.777 286.602 230.776 281.077C230.775 275.551 232.969 270.251 236.875 266.344L218.469 284.76C214.561 288.668 209.261 290.863 203.735 290.863C198.208 290.863 192.908 288.668 189 284.76C185.092 280.853 182.897 275.552 182.897 270.026C182.897 264.499 185.092 259.199 189 255.292L255.292 189C259.2 185.092 264.5 182.897 270.026 182.897C275.553 182.897 280.853 185.092 284.761 189C288.668 192.908 290.864 198.208 290.864 203.734C290.864 209.261 288.668 214.561 284.761 218.469L266.344 236.875C270.252 232.968 275.551 230.774 281.077 230.775C286.602 230.776 291.901 232.972 295.807 236.88C299.714 240.788 301.908 246.087 301.907 251.613C301.906 257.138 299.71 262.437 295.802 266.344L266.344 295.802Z" fill="white"/>
<path d="M112.625 112.625L98.0417 98.0417" stroke="white" stroke-width="20.8333" stroke-linecap="round" stroke-linejoin="round"/>
<path d="M138.708 205C134.801 208.908 129.5 211.103 123.974 211.103C118.448 211.103 113.147 208.908 109.24 205C105.332 201.092 103.136 195.792 103.136 190.266C103.136 184.739 105.332 179.439 109.24 175.531L127.656 157.125C125.721 159.059 123.424 160.594 120.897 161.64C118.369 162.687 115.659 163.225 112.923 163.225C107.398 163.224 102.099 161.028 98.1928 157.12C96.2585 155.185 94.7243 152.888 93.6777 150.36C92.6312 147.832 92.0928 145.123 92.0933 142.387C92.0942 136.862 94.2902 131.563 98.198 127.656L127.656 98.198C131.563 94.2902 136.862 92.0943 142.387 92.0933C145.123 92.0928 147.832 92.6312 150.36 93.6778C152.888 94.7243 155.185 96.2585 157.12 98.1928C159.055 100.127 160.59 102.423 161.637 104.951C162.685 107.478 163.224 110.188 163.225 112.923C163.225 115.659 162.687 118.369 161.64 120.897C160.594 123.424 159.059 125.721 157.125 127.656L175.531 109.24C179.439 105.332 184.739 103.136 190.266 103.136C195.792 103.136 201.092 105.332 205 109.24C208.908 113.147 211.103 118.448 211.103 123.974C211.103 129.5 208.908 134.801 205 138.708L138.708 205Z" fill="white"/>
</svg>
