<svg width="470" height="500" viewBox="0 0 470 500" fill="none" xmlns="http://www.w3.org/2000/svg">
<path fill-rule="evenodd" clip-rule="evenodd" d="M234.605 378.253C301.058 378.253 356.828 321.903 356.828 250.002C356.828 178.102 301.058 121.752 234.605 121.752C168.151 121.752 112.382 178.102 112.382 250.002C112.382 321.903 168.151 378.253 234.605 378.253ZM234.605 406.933C317.946 406.933 385.508 336.673 385.508 250.002C385.508 163.332 317.946 93.0717 234.605 93.0717C151.264 93.0717 83.7021 163.332 83.7021 250.002C83.7021 336.673 151.264 406.933 234.605 406.933Z" fill="white"/>
<path fill-rule="evenodd" clip-rule="evenodd" d="M222.579 337.132C244.655 331.963 268.543 317.745 287.877 294.703C307.212 271.662 317.065 245.667 318.322 223.029C319.578 200.399 312.372 182.838 299.808 172.296C287.244 161.753 268.699 157.706 246.631 162.873C224.555 168.041 200.666 182.259 181.332 205.301C161.998 228.343 152.144 254.337 150.887 276.975C149.631 299.605 156.837 317.166 169.401 327.709C181.966 338.251 200.511 342.298 222.579 337.132ZM153.015 347.238C193.222 380.975 262.345 364.792 307.406 311.09C352.467 257.389 356.402 186.505 316.195 152.767C275.988 119.029 206.864 135.213 161.803 188.914C116.742 242.616 112.807 313.5 153.015 347.238Z" fill="white"/>
<path d="M50.4246 210.677C49.3764 221.989 40.4077 228.781 30.3133 227.846C20.219 226.91 12.6511 218.586 13.6992 207.274C14.7474 195.963 23.7208 189.12 33.8152 190.055C43.9095 190.991 51.4727 199.366 50.4246 210.677ZM44.1346 210.095C44.8349 202.536 39.9966 197.33 33.1994 196.7C26.4022 196.07 20.6389 200.294 19.9385 207.852C19.2428 215.36 24.1319 220.571 30.9291 221.201C37.7263 221.831 43.4389 217.602 44.1346 210.095Z" fill="white"/>
<path d="M24.6556 158.307L30.6334 160.008L27.0784 172.503L55.3993 180.561L53.587 186.931L25.266 178.873L21.711 191.367L15.7333 189.666L21.1006 170.802L24.6556 158.307Z" fill="white"/>
<path d="M39.3296 126.757L42.2815 120.829L74.203 136.724L71.2511 142.652L57.616 135.862L49.2144 152.735L62.8494 159.525L59.8975 165.453L27.976 149.558L30.9279 143.63L43.6509 149.965L52.0526 133.092L39.3296 126.757Z" fill="white"/>
<path d="M80.0259 122.166L93.2269 104.685L98.1866 108.431L81.5165 130.505L80.9946 131.196L52.5373 109.707L56.5283 104.422L69.4837 87.2659L74.4434 91.0113L61.488 108.167L68.2365 113.263L76.4334 102.409L81.3931 106.154L73.1962 117.009L80.0259 122.166Z" fill="white"/>
<path d="M113.7 74.7769L129.572 78.5758L129.812 78.8393L124.617 83.5755L109.39 79.8785L101.484 87.0857L110.235 96.6857L105.341 101.147L81.3173 74.7942L86.2114 70.3326L95.3597 61.9929C100.367 57.4283 107.405 57.2849 111.935 62.2544C115.299 65.9438 115.727 70.7236 113.7 74.7769ZM90.2955 74.8127L97.537 82.7562L106.271 74.794C108.794 72.4945 109.341 69.2383 107.11 66.7913C104.845 64.3065 101.552 64.551 99.0296 66.8504L90.2955 74.8127Z" fill="white"/>
<path d="M141.302 68.7653L128.42 35.5133L146.661 28.4467C152.362 26.2383 157.66 28.7748 159.611 33.8101C160.918 37.1828 160.223 40.1836 158.315 42.4522C162.217 42.088 165.944 43.8126 167.656 48.2303C169.772 53.6932 166.906 58.8462 161.681 60.8705L141.302 68.7653ZM140.006 47.0868L150.932 42.8542C153.639 41.8052 154.724 39.5276 153.693 36.8674C152.681 34.2548 150.327 33.2547 147.619 34.3036L136.694 38.5363L140.006 47.0868ZM145.361 60.9101L158.377 55.8678C161.085 54.8188 162.198 52.4753 161.186 49.8626C160.156 47.2025 157.754 46.2208 155.046 47.2697L142.03 52.3121L145.361 60.9101Z" fill="white"/>
<path d="M195.627 51.8126C184.46 53.9001 175.473 47.1325 173.61 37.1675C171.747 27.2025 177.683 17.6454 188.849 15.558C200.016 13.4705 209.053 20.2287 210.916 30.1937C212.779 40.1588 206.793 49.7252 195.627 51.8126ZM194.466 45.6033C201.927 44.2085 205.611 38.1301 204.356 31.42C203.102 24.7099 197.462 20.3225 190.001 21.7173C182.59 23.1027 178.915 29.2311 180.17 35.9412C181.424 42.6514 187.055 46.9887 194.466 45.6033Z" fill="white"/>
<path d="M222.326 48.3572L211.017 13.1048V12.6972L217.894 12.6972L225.586 38.6781L234.196 13.7161L239.29 13.7161L247.95 38.6781L255.643 12.6972L262.469 12.6972V13.1048L251.211 48.3572H245.148L236.743 23.9047L228.337 48.3572L222.326 48.3572Z" fill="white"/>
<path d="M273.492 44.5988L294.023 48.4367L292.881 54.5459L268.244 49.9404L265.84 49.4911L272.392 14.4383L278.902 15.6552L273.492 44.5988Z" fill="white"/>
<path d="M314.293 25.3467L320.469 27.739L307.587 60.991L301.412 58.5987L314.293 25.3467Z" fill="white"/>
<path d="M359.009 48.6995L364.639 52.1858L345.867 82.5046L340.886 79.4205L336.838 47.7342L323.777 68.8274L318.147 65.3411L336.919 35.0223L341.9 38.1064L345.948 69.7927L359.009 48.6995Z" fill="white"/>
<path d="M377.303 86.0939L388.974 96.7331L385.13 100.95L379.707 106.898C373.816 107.387 368.319 105.477 363.537 101.119C354.276 92.6758 354.668 81.6592 361.361 74.318C368.225 66.7885 379.274 65.5565 387.858 73.3814C393.392 78.4265 395.285 85.0462 393.536 90.8968L387.298 89.3461C388.465 85.7221 387.624 81.578 383.746 78.043C378.024 72.8264 370.994 73.6562 366.327 78.7763C361.728 83.821 361.369 90.8694 367.656 96.6008C370.404 99.1062 373.537 100.584 377.149 100.706L380.65 96.8655L373.459 90.3104L377.303 86.0939Z" fill="white"/>
<path d="M385.982 123.616L417.904 107.721L426.623 125.232C429.348 130.704 427.311 136.214 422.477 138.621C419.24 140.234 416.188 139.818 413.753 138.129C414.475 141.98 413.102 145.851 408.861 147.962C403.617 150.574 398.221 148.195 395.723 143.179L385.982 123.616ZM407.449 120.325L412.671 130.814C413.965 133.413 416.333 134.283 418.887 133.011C421.395 131.762 422.174 129.326 420.88 126.726L415.657 116.238L407.449 120.325ZM394.178 126.933L400.4 139.428C401.694 142.027 404.131 142.92 406.639 141.671C409.192 140.399 409.948 137.917 408.654 135.318L402.432 122.823L394.178 126.933Z" fill="white"/>
<path d="M447.521 165.953L417.985 190.776L417.544 190.901L415.62 184.14L421.56 179.325L416.61 161.93L409.012 160.914L407.088 154.153L407.529 154.027L445.723 159.632L447.521 165.953ZM423.04 162.749L426.595 175.244L439.314 164.845L423.04 162.749Z" fill="white"/>
<path d="M427.594 220.586L414.998 230.962L414.643 230.995L413.994 223.995L426.121 214.072L425.134 203.419L412.199 204.618L411.588 198.023L447.095 194.733L447.706 201.328L448.849 213.654C449.474 220.4 445.347 226.104 438.651 226.724C433.68 227.185 429.607 224.646 427.594 220.586ZM441.67 201.887L430.967 202.879L432.058 214.647C432.372 218.046 434.641 220.445 437.938 220.139C441.286 219.829 443.076 217.054 442.761 213.655L441.67 201.887Z" fill="white"/>
<path d="M418.781 279.741C419.829 268.43 428.797 261.638 438.892 262.573C448.986 263.508 456.554 271.833 455.506 283.144C454.458 294.456 445.484 301.299 435.39 300.364C425.296 299.428 417.732 291.053 418.781 279.741ZM425.07 280.324C424.37 287.882 429.208 293.089 436.006 293.719C442.803 294.348 448.566 290.124 449.267 282.566C449.962 275.059 445.073 269.848 438.276 269.218C431.479 268.588 425.766 272.817 425.07 280.324Z" fill="white"/>
<path d="M439.759 341.693L433.782 339.992L437.337 327.497L409.016 319.439L410.828 313.069L439.149 321.127L442.704 308.633L448.682 310.334L443.314 329.198L439.759 341.693Z" fill="white"/>
<path d="M425.085 373.243L422.134 379.171L390.212 363.276L393.164 357.348L406.799 364.137L415.201 347.265L401.566 340.475L404.518 334.547L436.439 350.442L433.487 356.37L420.764 350.035L412.362 366.908L425.085 373.243Z" fill="white"/>
<path d="M384.389 377.834L371.188 395.315L366.228 391.569L382.899 369.495L383.42 368.803L411.878 390.293L407.887 395.578L394.931 412.734L389.972 408.989L402.927 391.833L396.179 386.737L387.982 397.591L383.022 393.846L391.219 382.991L384.389 377.834Z" fill="white"/>
<path d="M350.717 425.223L334.845 421.424L334.605 421.161L339.8 416.424L355.027 420.121L362.933 412.914L354.182 403.314L359.076 398.853L383.1 425.206L378.206 429.667L369.057 438.007C364.05 442.572 357.012 442.715 352.482 437.746C349.118 434.056 348.69 429.276 350.717 425.223ZM374.122 425.187L366.88 417.244L358.146 425.206C355.623 427.505 355.076 430.762 357.307 433.209C359.572 435.693 362.865 435.449 365.387 433.149L374.122 425.187Z" fill="white"/>
<path d="M323.113 431.235L335.995 464.487L317.754 471.553C312.053 473.762 306.755 471.225 304.804 466.19C303.497 462.817 304.192 459.816 306.1 457.548C302.198 457.912 298.471 456.187 296.759 451.77C294.643 446.307 297.509 441.154 302.734 439.129L323.113 431.235ZM324.409 452.913L313.483 457.146C310.776 458.195 309.691 460.472 310.722 463.132C311.734 465.745 314.088 466.745 316.796 465.696L327.721 461.464L324.409 452.913ZM319.054 439.09L306.038 444.132C303.33 445.181 302.217 447.525 303.229 450.137C304.259 452.797 306.661 453.779 309.369 452.73L322.385 447.688L319.054 439.09Z" fill="white"/>
<path d="M268.789 448.187C279.956 446.1 288.943 452.867 290.806 462.832C292.669 472.797 286.733 482.355 275.567 484.442C264.4 486.529 255.363 479.771 253.5 469.806C251.637 459.841 257.623 450.275 268.789 448.187ZM269.95 454.397C262.489 455.791 258.805 461.87 260.06 468.58C261.314 475.29 266.954 479.677 274.415 478.283C281.826 476.897 285.501 470.769 284.246 464.059C282.992 457.349 277.361 453.011 269.95 454.397Z" fill="white"/>
<path d="M242.088 451.643L253.397 486.895V487.303H246.52L238.828 461.322L230.218 486.284H225.124L216.464 461.322L208.771 487.303H201.945V486.895L213.203 451.643H219.266L227.671 476.095L236.077 451.643H242.088Z" fill="white"/>
<path d="M190.922 455.401L170.391 451.563L171.533 445.454L196.171 450.06L198.574 450.509L192.022 485.562L185.512 484.345L190.922 455.401Z" fill="white"/>
<path d="M150.121 474.653L143.945 472.261L156.827 439.009L163.002 441.401L150.121 474.653Z" fill="white"/>
<path d="M105.406 451.301L99.7757 447.814L118.548 417.495L123.529 420.58L127.577 452.266L140.638 431.173L146.268 434.659L127.496 464.978L122.515 461.894L118.467 430.207L105.406 451.301Z" fill="white"/>
<path d="M87.113 413.906L75.4424 403.267L79.2862 399.05L84.7088 393.102C90.6001 392.613 96.0974 394.523 100.879 398.881C110.14 407.324 109.748 418.341 103.055 425.682C96.1913 433.211 85.1416 434.443 76.558 426.619C71.0239 421.573 69.1312 414.954 70.8801 409.103L77.1181 410.654C75.9514 414.278 76.7921 418.422 80.6698 421.957C86.3922 427.174 93.4217 426.344 98.0892 421.224C102.688 416.179 103.047 409.131 96.7602 403.399C94.012 400.894 90.8785 399.416 87.2669 399.294L83.7662 403.134L90.9568 409.69L87.113 413.906Z" fill="white"/>
<path d="M78.4339 376.384L46.5124 392.279L37.7928 374.768C35.068 369.296 37.1047 363.786 41.9385 361.379C45.1763 359.766 48.2284 360.182 50.6634 361.871C49.9407 358.02 51.314 354.149 55.555 352.038C60.7992 349.426 66.1947 351.804 68.6925 356.821L78.4339 376.384ZM56.9675 379.675L51.7448 369.186C50.4505 366.587 48.0826 365.717 45.5289 366.989C43.0208 368.238 42.2421 370.674 43.5365 373.274L48.7591 383.762L56.9675 379.675ZM70.2377 373.067L64.016 360.572C62.7217 357.973 60.2854 357.08 57.7773 358.329C55.2236 359.601 54.4677 362.083 55.762 364.682L61.9837 377.177L70.2377 373.067Z" fill="white"/>
<path d="M21.6849 334.047L51.2209 309.224L51.6619 309.099L53.5858 315.86L47.6466 320.675L52.5957 338.07L60.1939 339.086L62.1178 345.847L61.6768 345.973L23.4834 340.368L21.6849 334.047ZM46.1658 337.251L42.6108 324.756L29.8918 335.155L46.1658 337.251Z" fill="white"/>
<path d="M36.82 279.414L49.4162 269.038L49.7713 269.005L50.4199 276.005L38.2934 285.928L39.2805 296.581L52.2155 295.382L52.8265 301.977L17.3186 305.267L16.7076 298.673L15.5654 286.346C14.9402 279.6 19.0674 273.897 25.7632 273.276C30.7343 272.815 34.8066 275.354 36.82 279.414ZM22.7439 298.113L33.447 297.121L32.3565 285.353C32.0416 281.954 29.7729 279.555 26.4757 279.861C23.1278 280.171 21.3385 282.946 21.6534 286.345L22.7439 298.113Z" fill="white"/>
</svg>
